<?xml version="1.0" standalone="no"?>
<!DOCTYPE svg PUBLIC "-//W3C//DTD SVG 20010904//EN"
 "http://www.w3.org/TR/2001/REC-SVG-20010904/DTD/svg10.dtd">
<svg version="1.0" xmlns="http://www.w3.org/2000/svg"
 width="200.000000pt" height="200.000000pt" viewBox="0 0 200.000000 200.000000"
 preserveAspectRatio="xMidYMid meet">

<g transform="translate(0.000000,200.000000) scale(0.100000,-0.100000)"
fill="#000000" stroke="none">
<path d="M833 1946 c-205 -39 -383 -136 -524 -284 -368 -384 -355 -987 28
-1353 126 -120 277 -203 449 -246 95 -24 333 -24 428 0 182 46 328 128 462
261 133 134 215 280 261 462 24 95 24 333 0 428 -45 179 -128 327 -257 457
-130 133 -270 214 -449 260 -99 27 -298 34 -398 15z m342 -45 c190 -39 342
-120 474 -252 179 -179 265 -389 265 -649 0 -260 -86 -470 -265 -649 -212
-212 -521 -310 -809 -255 -357 67 -620 306 -726 659 -25 81 -28 105 -28 245 0
140 3 164 28 245 74 245 228 442 439 559 71 40 219 92 298 105 93 15 229 12
324 -8z"/>
<path d="M640 1580 c-72 -15 -162 -65 -216 -120 -77 -78 -131 -200 -89 -200 9
0 18 8 22 18 60 180 243 295 418 263 62 -12 123 -38 165 -71 l25 -19 -137
-138 c-76 -76 -138 -143 -138 -150 0 -15 46 -51 90 -69 51 -22 140 -19 195 5
26 11 77 50 115 87 l69 67 128 -120 c202 -190 233 -226 233 -267 0 -26 -7 -40
-31 -60 -55 -47 -68 -40 -225 115 -129 128 -164 153 -164 116 0 -6 61 -72 135
-147 123 -124 135 -140 135 -172 0 -28 -7 -42 -32 -63 -53 -45 -74 -33 -229
121 -125 125 -159 148 -159 111 0 -7 61 -73 135 -147 123 -123 135 -138 135
-171 0 -33 -31 -79 -54 -79 -4 0 -24 18 -45 40 -28 29 -46 40 -68 40 -28 0
-31 4 -37 39 -7 47 -54 91 -96 91 -24 0 -29 5 -34 35 -10 51 -50 94 -97 101
-35 6 -39 9 -39 36 0 21 -11 41 -34 64 -29 29 -41 34 -81 34 -42 0 -51 -5
-101 -52 -53 -50 -55 -51 -74 -33 -35 32 -88 119 -103 170 -8 31 -21 51 -31
53 -46 9 12 -144 86 -224 40 -43 43 -50 40 -94 -5 -61 30 -107 89 -116 30 -5
39 -11 39 -26 0 -24 24 -70 45 -88 9 -7 33 -16 53 -19 33 -6 37 -10 43 -43 3
-20 12 -44 19 -53 18 -21 64 -45 88 -45 15 0 21 -9 26 -39 9 -55 53 -91 113
-91 41 0 50 5 105 58 33 31 67 72 74 89 8 18 21 33 30 33 9 0 31 15 50 34 26
26 34 43 34 69 0 32 2 35 40 41 56 9 100 51 107 102 5 39 8 42 43 48 47 7 84
36 100 78 8 18 29 50 48 72 145 163 132 418 -29 571 -150 143 -367 161 -529
44 l-42 -31 -45 32 c-83 60 -216 89 -313 70z m712 -41 c244 -52 376 -311 270
-531 -17 -34 -38 -72 -47 -83 -16 -19 -17 -19 -27 -2 -16 29 -368 372 -385
375 -9 2 -49 -28 -92 -71 -42 -41 -90 -82 -108 -91 -46 -23 -135 -21 -185 5
l-41 21 153 153 c159 159 214 199 305 221 65 16 93 16 157 3z m-662 -629 c37
-37 27 -77 -38 -142 -66 -65 -99 -74 -139 -36 -40 38 -31 74 34 140 47 47 63
58 90 58 20 0 41 -8 53 -20z m119 -120 c10 -5 24 -22 30 -39 16 -36 1 -69 -56
-123 -65 -63 -113 -67 -149 -14 -24 38 -12 65 55 129 59 57 84 67 120 47z
m161 -160 c22 -42 11 -70 -49 -131 -66 -65 -91 -72 -135 -38 -41 33 -36 79 17
136 52 57 90 75 129 61 16 -6 33 -18 38 -28z m120 -120 c37 -37 27 -78 -37
-142 -65 -65 -99 -74 -140 -36 -40 38 -31 73 35 140 65 65 105 75 142 38z"/>
<path d="M300 1185 c0 -28 4 -35 20 -35 16 0 20 7 20 35 0 28 -4 35 -20 35
-16 0 -20 -7 -20 -35z"/>
</g>
</svg>
